<?xml version="1.0" encoding="UTF-8" standalone="no" ?>
<!DOCTYPE svg PUBLIC "-//W3C//DTD SVG 1.1//EN" "http://www.w3.org/Graphics/SVG/1.1/DTD/svg11.dtd">
<svg xmlns="http://www.w3.org/2000/svg" xmlns:xlink="http://www.w3.org/1999/xlink" version="1.1" width="400" height="400" viewBox="0 0 400 400" xml:space="preserve">
<desc>Created with Fabric.js 3.6.2</desc>
<defs>
</defs>
<g transform="matrix(8.33 0 0 8.33 200 200)" id="whatsapp"  >
<path style="stroke: none; stroke-width: 1; stroke-dasharray: none; stroke-linecap: butt; stroke-dashoffset: 0; stroke-linejoin: miter; stroke-miterlimit: 4; fill: rgb(48,60,66); fill-rule: nonzero; opacity: 1;"  transform=" translate(-11.97, -12)" d="M 12 0 A 12 12 0 0 0 1.9 18.48 L 0 23.32 A 0.5 0.5 0 0 0 0.5 24 a 0.49 0.49 0 0 0 0.17 0 l 5 -1.79 A 12 12 0 1 0 12 0 Z m 6 15.5 A 3 3 0 0 1 15 18 c -1.57 0 -4.59 -1.88 -5.85 -3.15 S 6 10.57 6 9 A 3 3 0 0 1 8.5 6 h 1 a 0.5 0.5 0 0 1 0.45 0.28 s 0.6 1.22 1 2 s -0.39 1.89 -0.87 2.37 a 6 6 0 0 0 1.27 2 a 6 6 0 0 0 2 1.27 a 3 3 0 0 1 1.83 -1 a 1.16 1.16 0 0 1 0.53 0.13 c 0.77 0.39 2 1 2 1 a 0.5 0.5 0 0 1 0.28 0.45 Z" stroke-linecap="round" />
</g>
</svg>