<?xml version="1.0" encoding="utf-8"?>
<!-- Generator: Adobe Illustrator 20.1.0, SVG Export Plug-In . SVG Version: 6.00 Build 0)  -->
<svg version="1.1" id="Layer_1" xmlns="http://www.w3.org/2000/svg" xmlns:xlink="http://www.w3.org/1999/xlink" x="0px" y="0px"
	 viewBox="0 0 1000 1000" enable-background="new 0 0 1000 1000" xml:space="preserve">
<path d="M994.151,498.36c0,272.543-220.938,493.482-493.477,493.482c-272.549,0-493.485-220.938-493.485-493.482
	c0-272.542,220.936-493.48,493.485-493.48C773.213,4.879,994.151,225.818,994.151,498.36z"/>
<path fill="#EC8DB9" d="M189.935,801.756L509.268,75.385l318.86,724.492h-27.933L509.268,134.92L219.729,801.756H189.935z
	 M260.693,799.877l248.575-580.673l255.557,580.673H745.74L509.268,259.678L278.846,799.877H260.693z M329.592,799.877
	l179.676-438.229l196.901,438.229h-17.683L509.268,404.036L347.281,799.877H329.592z"/>
<g>
	<path fill="#FFFFFF" d="M204.711,644.134h-28.367v-90.415h21.95c6.916,0,12.314,1.003,16.192,3.01
		c3.878,2.006,6.837,4.768,8.876,8.284c2.039,3.517,3.059,7.583,3.059,12.2c0,8.889-4.258,15.252-12.774,19.092
		c6.117,1.252,10.984,3.971,14.603,8.155c3.618,4.185,5.428,9.19,5.428,15.016c0,4.617-1.1,8.737-3.298,12.361
		c-2.2,3.624-5.428,6.58-9.686,8.866C216.436,642.991,211.107,644.134,204.711,644.134z M198.654,565.239h-10.315v27.183h7.977
		c6.396,0,10.945-1.315,13.644-3.948c2.699-2.631,4.048-6.04,4.048-10.226C214.007,569.575,208.889,565.239,198.654,565.239z
		 M199.553,603.942h-11.215v28.671h11.815c6.557,0,11.005-0.55,13.344-1.65c2.339-1.1,4.218-2.815,5.637-5.146
		c1.419-2.329,2.129-4.831,2.129-7.507c0-2.761-0.75-5.285-2.249-7.572c-1.499-2.287-3.628-3.991-6.387-5.113
		C209.869,604.503,205.51,603.942,199.553,603.942z"/>
	<path fill="#FFFFFF" d="M303.785,553.719h12.054v51.323c0,6.948-0.47,12.19-1.409,15.727c-0.94,3.538-2.099,6.483-3.479,8.834
		c-1.379,2.353-3.069,4.456-5.067,6.311c-6.637,6.171-15.313,9.255-26.028,9.255c-10.915,0-19.671-3.063-26.268-9.19
		c-1.999-1.897-3.689-4.022-5.068-6.375c-1.379-2.351-2.518-5.231-3.418-8.64c-0.9-3.408-1.349-8.759-1.349-16.051v-51.194h12.054
		v51.323c0,8.501,0.9,14.412,2.699,17.734c1.799,3.322,4.538,5.986,8.216,7.992c3.678,2.007,8.016,3.01,13.014,3.01
		c7.116,0,12.914-2.006,17.392-6.018c2.358-2.157,4.057-4.703,5.098-7.638c1.039-2.934,1.559-7.96,1.559-15.08V553.719z"/>
	<path fill="#FFFFFF" d="M328.134,553.589h72.207l-53.522,79.024h53.522v11.521h-75.625l53.597-79.024h-50.179V553.589z"/>
	<path fill="#FFFFFF" d="M411.795,553.719h47.498v11.521H423.79v27.571h34.304v11.585H423.79v28.089h36.643v11.52h-48.637V553.719z"
		/>
	<path fill="#FFFFFF" d="M539.775,553.719h11.394v90.415h-10.314L484.841,574.5v69.634h-11.274v-90.415h9.715l56.493,70.225V553.719
		z"/>
	<path fill="#FFFFFF" d="M616.484,553.719h14.989l-36.34,42.91l45.276,47.505h-16.372l-42.82-44.657v44.657h-11.995v-90.415h11.995
		v41.356L616.484,553.719z"/>
	<path fill="#FFFFFF" d="M676.004,552.425c12.944,0,23.723,4.423,32.334,13.268c8.609,8.846,12.915,19.934,12.915,33.267
		c0,13.332-4.345,24.367-13.035,33.104c-8.69,8.737-19.647,13.105-32.873,13.105c-12.626,0-23.144-4.368-31.555-13.105
		c-8.411-8.737-12.615-19.686-12.615-32.846c0-13.505,4.234-24.68,12.705-33.525C652.351,556.848,663.059,552.425,676.004,552.425z
		 M676.483,564.722c-9.587,0-17.466,3.235-23.637,9.708c-6.172,6.472-9.258,14.734-9.258,24.788c0,9.751,3.095,17.862,9.287,24.335
		c6.191,6.472,13.941,9.708,23.248,9.708c9.346,0,17.145-3.301,23.397-9.902c6.251-6.602,9.377-14.821,9.377-24.658
		c0-9.579-3.126-17.637-9.377-24.174C693.269,567.989,685.59,564.722,676.483,564.722z"/>
	<path fill="#FFFFFF" d="M784.153,553.719h11.945l-35.423,90.804h-2.717l-36.107-90.804h12.074l25.198,63.491L784.153,553.719z"/>
	<path fill="#FFFFFF" d="M822.188,553.201h8.43l37.566,90.933h-12.276l-11.167-26.795h-35.744l-10.469,26.795h-12.326
		L822.188,553.201z M839.81,605.819l-13.517-32.749l-12.535,32.749H839.81z"/>
</g>
<g>
	<path fill="#FFFFFF" d="M445.717,680.243h4.83l-13.678,33.978h-1.064l-11.062-27.512l-11.177,27.512h-1.04l-13.636-33.978h4.88
		l9.324,23.322l9.386-23.322h4.579l9.43,23.322L445.717,680.243z"/>
	<path fill="#FFFFFF" d="M454.301,680.243h19.181v4.311h-14.337v10.316h13.853v4.335h-13.853v10.511h14.797v4.31h-19.641V680.243z"
		/>
	<path fill="#FFFFFF" d="M479.148,714.027v-33.784h11.407c4.601,0,8.242,0.69,10.923,2.071c2.68,1.38,4.811,3.41,6.393,6.091
		c1.582,2.68,2.373,5.603,2.373,8.767c0,2.261-0.435,4.424-1.307,6.49c-0.873,2.067-2.115,3.884-3.73,5.449
		c-1.647,1.615-3.561,2.834-5.74,3.657c-1.275,0.5-2.445,0.835-3.51,1.005c-1.066,0.17-3.101,0.254-6.104,0.254H479.148z
		 M490.047,684.555h-6.055v25.162h6.2c2.422,0,4.303-0.165,5.644-0.496c1.34-0.331,2.457-0.751,3.354-1.26
		c0.896-0.509,1.715-1.134,2.457-1.877c2.391-2.422,3.586-5.482,3.586-9.179c0-3.633-1.229-6.595-3.682-8.888
		c-0.904-0.855-1.941-1.558-3.113-2.107c-1.17-0.549-2.279-0.912-3.329-1.09C494.059,684.644,492.372,684.555,490.047,684.555z"/>
	<path fill="#FFFFFF" d="M516.348,714.027v-33.784h11.406c4.602,0,8.242,0.69,10.923,2.071c2.68,1.38,4.811,3.41,6.394,6.091
		c1.582,2.68,2.373,5.603,2.373,8.767c0,2.261-0.436,4.424-1.308,6.49c-0.872,2.067-2.115,3.884-3.729,5.449
		c-1.647,1.615-3.561,2.834-5.74,3.657c-1.275,0.5-2.445,0.835-3.511,1.005c-1.066,0.17-3.101,0.254-6.104,0.254H516.348z
		 M527.245,684.555h-6.054v25.162h6.199c2.422,0,4.303-0.165,5.644-0.496c1.34-0.331,2.458-0.751,3.354-1.26
		c0.896-0.509,1.716-1.134,2.458-1.877c2.39-2.422,3.585-5.482,3.585-9.179c0-3.633-1.228-6.595-3.682-8.888
		c-0.904-0.855-1.941-1.558-3.112-2.107c-1.17-0.549-2.28-0.912-3.329-1.09C531.258,684.644,529.57,684.555,527.245,684.555z"/>
	<path fill="#FFFFFF" d="M553.547,680.243h4.844v33.833h-4.844V680.243z"/>
	<path fill="#FFFFFF" d="M592.779,680.243h4.602v33.833h-4.165l-22.62-26.057v26.057h-4.553v-33.833h3.923l22.814,26.278V680.243z"
		/>
	<path fill="#FFFFFF" d="M622.907,697.414h11.358v14.337c-4.166,1.809-8.299,2.713-12.4,2.713c-5.602,0-10.079-1.635-13.429-4.904
		c-3.351-3.27-5.025-7.302-5.025-12.097c0-5.054,1.735-9.26,5.207-12.618c3.471-3.358,7.822-5.037,13.054-5.037
		c1.905,0,3.713,0.206,5.425,0.617c1.711,0.412,3.875,1.167,6.49,2.265v4.94c-4.036-2.341-8.04-3.512-12.012-3.512
		c-3.697,0-6.814,1.26-9.349,3.778c-2.535,2.518-3.802,5.61-3.802,9.275c0,3.843,1.267,6.983,3.802,9.421
		c2.535,2.439,5.796,3.657,9.784,3.657c1.938,0,4.254-0.444,6.951-1.332l0.46-0.146v-7.048h-6.515V697.414z"/>
</g>
</svg>
