<svg xmlns="http://www.w3.org/2000/svg" xmlns:xlink="http://www.w3.org/1999/xlink"><symbol id="logo" viewBox="0 0 1000 1000"><path d="M994.151 498.36c0 272.543-220.938 493.482-493.477 493.482-272.549 0-493.485-220.938-493.485-493.482 0-272.542 220.936-493.48 493.485-493.48 272.539-.001 493.477 220.938 493.477 493.48z"/><path fill="#EC8DB9" d="M189.935 801.756 509.268 75.385l318.86 724.492h-27.933L509.268 134.92 219.729 801.756h-29.794zm70.758-1.879 248.575-580.673 255.557 580.673H745.74L509.268 259.678 278.846 799.877h-18.153zm68.899 0 179.676-438.229 196.901 438.229h-17.683L509.268 404.036 347.281 799.877h-17.689z"/><g fill="#FFF"><path d="M204.711 644.134h-28.367v-90.415h21.95c6.916 0 12.314 1.003 16.192 3.01 3.878 2.006 6.837 4.768 8.876 8.284 2.039 3.517 3.059 7.583 3.059 12.2 0 8.889-4.258 15.252-12.774 19.092 6.117 1.252 10.984 3.971 14.603 8.155 3.618 4.185 5.428 9.19 5.428 15.016 0 4.617-1.1 8.737-3.298 12.361-2.2 3.624-5.428 6.58-9.686 8.866-4.258 2.288-9.587 3.431-15.983 3.431zm-6.057-78.895h-10.315v27.183h7.977c6.396 0 10.945-1.315 13.644-3.948 2.699-2.631 4.048-6.04 4.048-10.226-.001-8.673-5.119-13.009-15.354-13.009zm.899 38.703h-11.215v28.671h11.815c6.557 0 11.005-.55 13.344-1.65 2.339-1.1 4.218-2.815 5.637-5.146 1.419-2.329 2.129-4.831 2.129-7.507 0-2.761-.75-5.285-2.249-7.572s-3.628-3.991-6.387-5.113c-2.758-1.122-7.117-1.683-13.074-1.683zM303.785 553.719h12.054v51.323c0 6.948-.47 12.19-1.409 15.727-.94 3.538-2.099 6.483-3.479 8.834a27.632 27.632 0 0 1-5.067 6.311c-6.637 6.171-15.313 9.255-26.028 9.255-10.915 0-19.671-3.063-26.268-9.19a28.89 28.89 0 0 1-5.068-6.375c-1.379-2.351-2.518-5.231-3.418-8.64-.9-3.408-1.349-8.759-1.349-16.051v-51.194h12.054v51.323c0 8.501.9 14.412 2.699 17.734 1.799 3.322 4.538 5.986 8.216 7.992 3.678 2.007 8.016 3.01 13.014 3.01 7.116 0 12.914-2.006 17.392-6.018 2.358-2.157 4.057-4.703 5.098-7.638 1.039-2.934 1.559-7.96 1.559-15.08v-51.323zM328.134 553.589h72.207l-53.522 79.024h53.522v11.521h-75.625l53.597-79.024h-50.179v-11.521zM411.795 553.719h47.498v11.521H423.79v27.571h34.304v11.585H423.79v28.089h36.643v11.52h-48.637v-90.286zM539.775 553.719h11.394v90.415h-10.314L484.841 574.5v69.634h-11.274v-90.415h9.715l56.493 70.225v-70.225zM616.484 553.719h14.989l-36.34 42.91 45.276 47.505h-16.372l-42.82-44.657v44.657h-11.995v-90.415h11.995v41.356l35.267-41.356z"/><path d="M676.004 552.425c12.944 0 23.723 4.423 32.334 13.268 8.609 8.846 12.915 19.934 12.915 33.267 0 13.332-4.345 24.367-13.035 33.104-8.69 8.737-19.647 13.105-32.873 13.105-12.626 0-23.144-4.368-31.555-13.105-8.411-8.737-12.615-19.686-12.615-32.846 0-13.505 4.234-24.68 12.705-33.525 8.471-8.845 19.179-13.268 32.124-13.268zm.479 12.297c-9.587 0-17.466 3.235-23.637 9.708-6.172 6.472-9.258 14.734-9.258 24.788 0 9.751 3.095 17.862 9.287 24.335 6.191 6.472 13.941 9.708 23.248 9.708 9.346 0 17.145-3.301 23.397-9.902 6.251-6.602 9.377-14.821 9.377-24.658 0-9.579-3.126-17.637-9.377-24.174-6.251-6.538-13.93-9.805-23.037-9.805zM784.153 553.719h11.945l-35.423 90.804h-2.717l-36.107-90.804h12.074l25.198 63.491 25.03-63.491zM822.188 553.201h8.43l37.566 90.933h-12.276l-11.167-26.795h-35.744l-10.469 26.795h-12.326l35.986-90.933zm17.622 52.618-13.517-32.749-12.535 32.749h26.052z"/></g><g fill="#FFF"><path d="M445.717 680.243h4.83l-13.678 33.978h-1.064l-11.062-27.512-11.177 27.512h-1.04l-13.636-33.978h4.88l9.324 23.322 9.386-23.322h4.579l9.43 23.322 9.228-23.322zM454.301 680.243h19.181v4.311h-14.337v10.316h13.853v4.335h-13.853v10.511h14.797v4.31h-19.641v-33.783zM479.148 714.027v-33.784h11.407c4.601 0 8.242.69 10.923 2.071 2.68 1.38 4.811 3.41 6.393 6.091 1.582 2.68 2.373 5.603 2.373 8.767 0 2.261-.435 4.424-1.307 6.49a16.393 16.393 0 0 1-3.73 5.449 16.367 16.367 0 0 1-5.74 3.657c-1.275.5-2.445.835-3.51 1.005-1.066.17-3.101.254-6.104.254h-10.705zm10.899-29.472h-6.055v25.162h6.2c2.422 0 4.303-.165 5.644-.496 1.34-.331 2.457-.751 3.354-1.26a11.456 11.456 0 0 0 2.457-1.877c2.391-2.422 3.586-5.482 3.586-9.179 0-3.633-1.229-6.595-3.682-8.888a11.744 11.744 0 0 0-3.113-2.107c-1.17-.549-2.279-.912-3.329-1.09-1.05-.176-2.737-.265-5.062-.265zM516.348 714.027v-33.784h11.406c4.602 0 8.242.69 10.923 2.071 2.68 1.38 4.811 3.41 6.394 6.091 1.582 2.68 2.373 5.603 2.373 8.767 0 2.261-.436 4.424-1.308 6.49a16.39 16.39 0 0 1-3.729 5.449 16.367 16.367 0 0 1-5.74 3.657c-1.275.5-2.445.835-3.511 1.005-1.066.17-3.101.254-6.104.254h-10.704zm10.897-29.472h-6.054v25.162h6.199c2.422 0 4.303-.165 5.644-.496 1.34-.331 2.458-.751 3.354-1.26a11.462 11.462 0 0 0 2.458-1.877c2.39-2.422 3.585-5.482 3.585-9.179 0-3.633-1.228-6.595-3.682-8.888a11.755 11.755 0 0 0-3.112-2.107c-1.17-.549-2.28-.912-3.329-1.09-1.05-.176-2.738-.265-5.063-.265zM553.547 680.243h4.844v33.833h-4.844v-33.833zM592.779 680.243h4.602v33.833h-4.165l-22.62-26.057v26.057h-4.553v-33.833h3.923l22.814 26.278v-26.278zM622.907 697.414h11.358v14.337c-4.166 1.809-8.299 2.713-12.4 2.713-5.602 0-10.079-1.635-13.429-4.904-3.351-3.27-5.025-7.302-5.025-12.097 0-5.054 1.735-9.26 5.207-12.618 3.471-3.358 7.822-5.037 13.054-5.037 1.905 0 3.713.206 5.425.617 1.711.412 3.875 1.167 6.49 2.265v4.94c-4.036-2.341-8.04-3.512-12.012-3.512-3.697 0-6.814 1.26-9.349 3.778s-3.802 5.61-3.802 9.275c0 3.843 1.267 6.983 3.802 9.421 2.535 2.439 5.796 3.657 9.784 3.657 1.938 0 4.254-.444 6.951-1.332l.46-.146v-7.048h-6.515v-4.309z"/></g></symbol></svg>